<svg fill="#000000" xmlns="http://www.w3.org/2000/svg" data-name="Layer 1" viewBox="0 0 100 100" x="0px" y="0px"><title>sun</title><path d="M49.84,70A20.19,20.19,0,1,1,70.1,49.84,20.25,20.25,0,0,1,49.84,70Zm0-37.39A17.19,17.19,0,1,0,67.1,49.84,17.25,17.25,0,0,0,49.84,32.64Z"/><path d="M50,26.92a1.5,1.5,0,0,1-1.5-1.5V15.5a1.5,1.5,0,0,1,3,0v9.92A1.5,1.5,0,0,1,50,26.92Z"/><path d="M50,86a1.5,1.5,0,0,1-1.5-1.5V74.57a1.5,1.5,0,0,1,3,0V84.5A1.5,1.5,0,0,1,50,86Z"/><path d="M32.65,34.12a1.5,1.5,0,0,1-1.06-.44l-7-7a1.5,1.5,0,0,1,2.12-2.12l7,7a1.5,1.5,0,0,1-1.06,2.56Z"/><path d="M74.35,75.89a1.5,1.5,0,0,1-1.06-.44l-7-7a1.5,1.5,0,1,1,2.12-2.12l7,7a1.5,1.5,0,0,1-1.06,2.56Z"/><path d="M25.47,51.5H15.56a1.5,1.5,0,0,1,0-3h9.91a1.5,1.5,0,0,1,0,3Z"/><path d="M84.44,51.5H74.53a1.5,1.5,0,0,1,0-3h9.91a1.5,1.5,0,0,1,0,3Z"/><path d="M25.65,75.89a1.5,1.5,0,0,1-1.06-2.56l7-7a1.5,1.5,0,1,1,2.12,2.12l-7,7A1.5,1.5,0,0,1,25.65,75.89Z"/><path d="M67.35,34.12a1.5,1.5,0,0,1-1.06-2.56l7-7a1.5,1.5,0,0,1,2.12,2.12l-7,7A1.5,1.5,0,0,1,67.35,34.12Z"/><path d="M50,86a1.5,1.5,0,0,1-1.5-1.5v-7a1.5,1.5,0,0,1,3,0v7A1.5,1.5,0,0,1,50,86Z"/></svg>