<svg fill="#000000" xmlns="http://www.w3.org/2000/svg" data-name="Layer 1" viewBox="0 0 100 100" x="0px" y="0px"><title>sun in cloud</title><path d="M86.23,65.65a12.16,12.16,0,0,0-12-12.33h0c-.45,0-.9,0-1.35,0-1.73-8.8-9.08-15.26-17.67-15.26-.39,0-.78,0-1.16,0a16.8,16.8,0,0,0-10.94-5.38,16.6,16.6,0,0,0-12.23,3.85,16.25,16.25,0,0,0-5.78,11.12,16.08,16.08,0,0,0,.58,5.79,14.93,14.93,0,0,0-3.83,10c0,8.06,6.22,14.62,13.86,14.62H74l.4,0a4,4,0,0,0,.49,0h.43v0C81.47,77.64,86.23,72.27,86.23,65.65ZM28.07,48a13.26,13.26,0,0,1,4.72-9.08,13.67,13.67,0,0,1,10-3.16,13.81,13.81,0,0,1,7.54,3.06A18.54,18.54,0,0,0,38.84,49.14,16.47,16.47,0,0,0,35.91,49h-.2a13.31,13.31,0,0,0-7.49,2.33A13.14,13.14,0,0,1,28.07,48Zm46.7,27.18H35.69c-6,0-10.86-5.21-10.86-11.62S29.71,52,35.71,52h.2a9.55,9.55,0,0,1,3.28.36h0l1.38.52v0h0l.5-1.39,0,0c2.27-6.27,7.78-10.32,14-10.32,7.55,0,14,6.06,14.94,14.11l.18,1.49,2.78-.33,1.2,0a9.15,9.15,0,0,1,8.93,9.33C83.23,70.8,79.52,75,74.77,75.17Z"/><rect x="40.28" y="24.07" width="7.31" height="3" transform="translate(14.75 67.19) rotate(-85.17)"/><rect x="18.56" y="31.73" width="3" height="7.39" transform="translate(-20.49 31.81) rotate(-55.39)"/><rect x="29.33" y="23.28" width="3" height="7.34" transform="translate(-8.59 15.87) rotate(-25.45)"/><rect x="16.55" y="44" width="3" height="7.4" transform="translate(-31.04 61.55) rotate(-85.03)"/></svg>