<svg fill="#000000" xmlns="http://www.w3.org/2000/svg" data-name="Layer 1" viewBox="0 0 100 100" x="0px" y="0px"><title>rain_1</title><path d="M86,60.57A12.17,12.17,0,0,0,74,48.23c-.46,0-.93,0-1.39,0C70.9,39.45,63.55,33,55,33c-.39,0-.78,0-1.16,0a16.8,16.8,0,0,0-10.94-5.38,16.61,16.61,0,0,0-12.22,3.85,16.27,16.27,0,0,0-5.78,11.14,16.1,16.1,0,0,0,.57,5.79,15,15,0,0,0-3.83,10c0,7.64,5.58,13.93,12.67,14.57L26.2,81.22l2.14,2.11L38.43,73.1h8l-8,8.12,2.14,2.11L50.66,73.1h8.63l-8,8.12,2.14,2.11L63.5,73.1h7.56l-8,8.12,2.14,2.11L75.34,73C81.37,72.43,86,67.11,86,60.57ZM27.84,42.89a13.29,13.29,0,0,1,4.72-9.1,13.64,13.64,0,0,1,10-3.16,13.8,13.8,0,0,1,7.54,3.07A18.55,18.55,0,0,0,38.61,44a17.79,17.79,0,0,0-2.92-.18h-.2A13.3,13.3,0,0,0,28,46.2,13.2,13.2,0,0,1,27.84,42.89ZM74.54,70.1H35.46c-6,0-10.86-5.22-10.86-11.63s4.88-11.61,10.89-11.61h.2a9.34,9.34,0,0,1,3.28.36h0l1.39.53v0h0l.5-1.4v0C43.2,40,48.71,36,55,36c7.55,0,14,6.07,14.94,14.12l.18,1.49L73,51.24h1.05A9.16,9.16,0,0,1,83,60.57C83,65.73,79.29,69.9,74.54,70.1Z"/><rect x="40.05" y="18.94" width="7.32" height="3" transform="translate(19.65 62.27) rotate(-85.16)"/><rect x="18.33" y="26.62" width="3" height="7.39" transform="translate(-16.38 29.4) rotate(-55.36)"/><rect x="29.11" y="18.15" width="3" height="7.35" transform="translate(-6.41 15.25) rotate(-25.42)"/><rect x="16.32" y="38.9" width="3" height="7.4" transform="translate(-26.16 56.66) rotate(-85.03)"/></svg>