<svg fill="#000000" xmlns="http://www.w3.org/2000/svg" data-name="Layer 1" viewBox="0 0 100 100" x="0px" y="0px"><title>heavy rain</title><path d="M72.74,36.46c-.57,0-1.15,0-1.73,0-1.87-10-10.09-17.38-19.7-17.38-7.83,0-15,5-18.26,12.6a18.32,18.32,0,0,0-3.4-.22h-.23C20.92,31.5,14,38.86,14,47.91s6.9,16.44,15.39,16.44h1.5v-3h-1.5c-6.83,0-12.39-6-12.39-13.44S22.57,34.5,29.42,34.5h.23a10.72,10.72,0,0,1,3.74.41h0l1.37.53v0h0l.5-1.4,0-.07c2.59-7.2,8.83-11.85,15.93-11.85,8.58,0,15.87,7,17,16.24l.18,1.49,3-.35h0c.42,0,.85,0,1.31,0C78.35,39.42,83,44.31,83,50.3s-4.29,10.86-9.77,11.05l-.18,0h-.35l-.46,3a3.9,3.9,0,0,0,.63,0,4.27,4.27,0,0,0,.53,0C80.48,64.05,86,57.9,86,50.3S80.07,36.46,72.74,36.46Z"/><rect x="34.26" y="56.92" width="3" height="15.52"/><rect x="40.79" y="65.37" width="3" height="15.52"/><rect x="47.09" y="56.92" width="3" height="15.52"/><rect x="53.62" y="65.37" width="3" height="15.52"/><rect x="59.92" y="56.92" width="3" height="15.52"/><rect x="66.45" y="65.37" width="3" height="15.52"/></svg>