<svg fill="#000000" xmlns="http://www.w3.org/2000/svg" data-name="Layer 1" viewBox="0 0 100 100" x="0px" y="0px"><title>heavy rain_1</title><path d="M80.81,40.87a11.78,11.78,0,0,0-11.49-12l-1.27,0C66.37,20.29,59.33,14,51.11,14A17.38,17.38,0,0,0,35.45,24.75a17,17,0,0,0-2.74-.17h-.19c-7.35,0-13.32,6.39-13.32,14.25,0,7.54,5.49,13.72,12.4,14.22L27.16,65.18l2.82,1L34.77,53.1h6.9l-3,10.9a1.5,1.5,0,0,0,1.45,1.9h5.1l-2,13.22a1.5,1.5,0,0,0,2.74,1l13.92-21.6a1.5,1.5,0,0,0-1.26-2.31H54.39l1.29-3.14H67.36L62.72,65.82l2.82,1,5-13.81C76.37,52.43,80.81,47.24,80.81,40.87Zm-29.9,17.7a1.5,1.5,0,0,0,1.25.67h3.77L47.26,72.68l1.2-8.06A1.5,1.5,0,0,0,47,62.9H42.11l2.68-9.8h7.66l-1.68,4.07A1.5,1.5,0,0,0,50.91,58.57ZM69.79,50.1H32.49c-5.68,0-10.3-5.06-10.3-11.27s4.63-11.25,10.32-11.25h.19a8.84,8.84,0,0,1,3.09.34h0l1.38.54,0,0,0,0L37.77,27l.08-.2C40,20.86,45.23,17,51.11,17c7.17,0,13.27,5.89,14.19,13.7l.17,1.49,2.9-.34h1c4.67,0,8.46,4.06,8.46,9S74.29,49.9,69.79,50.1Z"/><rect x="21.46" y="71.21" width="9.03" height="3" transform="translate(-51.23 71.3) rotate(-69.3)"/><rect x="57.01" y="71.85" width="9.03" height="3" transform="translate(-28.84 104.97) rotate(-69.3)"/></svg>